<?xml version="1.0" encoding="UTF-8" standalone="no"?>
<!-- Created with Inkscape (http://www.inkscape.org/) -->

<svg
   width="500"
   height="500"
   viewBox="0 0 132.29166 132.29166"
   version="1.1"
   id="svg1"
   xmlns="http://www.w3.org/2000/svg"
   xmlns:svg="http://www.w3.org/2000/svg">
  <defs
     id="defs1" />
  <g
     id="layer1">
    <g
       id="g1"
       transform="translate(-293.78249,178.082)"
       style="stroke-width:0.999999">
      <g
         id="g3">
        <g
           transform="translate(295.11531,-342.57159)"
           id="g2127-36-6"
           style="stroke-width:0.999999">
          <g
             id="g1910-4-5"
             transform="matrix(1.9688648,0,0,1.9688648,-46.322679,-235.24353)"
             style="stroke-width:0.999999">
            <path
               id="path812-73-7-0-5"
               transform="matrix(0.1343837,0,0,0.1343837,24.347825,202.56568)"
               d="M 167.68555,17.910156 C 118.46691,19.327439 98.731449,112.28305 94.193359,190.02344 a 98.25597,98.448002 0 0 0 -40.158203,90.53125 98.25597,98.448002 0 0 0 88.251954,87.10156 c 34.14792,34.21257 82.94198,53.18589 134.72851,47.56055 47.93835,-5.20734 88.84513,-30.45285 115.29102,-66.4961 H 250 V 317.21875 L 381.25781,222.71484 H 250 V 191.21289 H 414.96484 C 388.32357,100.44992 339.07428,257.16404 240.85938,87.050781 209.48277,32.704907 192.99041,17.910156 167.68555,17.910156 Z M 150.89258,210.89844 a 59.07197,59.072204 0 0 1 59.36133,52.41992 l 0.0391,0.35937 a 59.07197,59.072204 0 0 1 -0.75586,17.57227 59.07197,59.072204 0 0 1 -51.47266,46.88867 59.07197,59.072204 0 0 1 -65.0957,-52.25781 59.07197,59.072204 0 0 1 1.076172,-19.13477 c 4.18e-4,0.006 0.0015,0.0132 0.002,0.0195 a 59.07197,59.072204 0 0 1 50.951178,-45.50585 59.07197,59.072204 0 0 1 5.89453,-0.36133 z m 272.93945,28.41406 -108.20312,77.90625 h 94.8457 c 10.4251,-23.79573 15.34795,-50.3566 13.35742,-77.90625 z"
               style="opacity:1;vector-effect:none;fill:#000000;fill-opacity:1;stroke:none;stroke-width:19.6886;stroke-linecap:round;stroke-linejoin:round;stroke-miterlimit:4;stroke-dasharray:none;stroke-dashoffset:0;stroke-opacity:1;paint-order:stroke fill markers" />
          </g>
        </g>
        <g
           id="g3-0-6"
           transform="matrix(0.28340386,0,0,0.28340386,262.56467,-130.09606)"
           style="stroke-width:0.999999">
          <g
             id="path816-3-9-4-8-2">
            <path
               id="path2"
               style="color:#000000;fill:#000000;stroke-linecap:round;-inkscape-stroke:none;paint-order:stroke fill markers"
               d="m 302.73907,219.87756 c -1.0746,0.009 -2.15883,0.0735 -3.24751,0.19511 -17.41889,1.94599 -30.21156,17.93247 -28.29219,35.35429 1.91937,17.42184 17.8876,30.24151 35.31236,28.34871 17.42475,-1.89278 30.26592,-17.8428 28.39977,-35.27041 -0.008,-0.015 -0.0141,-0.0289 -0.0219,-0.0438 9.5e-4,-0.0495 0.002,-0.10008 0.002,-0.14952 -1.726,-15.23891 -14.19768,-26.92084 -28.95774,-28.29948 -1.05429,-0.0985 -2.12002,-0.14429 -3.19463,-0.13494 z m 0.91536,12.82229 a 19.227228,19.227304 0 0 1 18.50042,17.05445 l 0.0128,0.1167 a 19.227228,19.227304 0 0 1 -17.03986,21.16261 19.227228,19.227304 0 0 1 -21.18814,-17.01068 19.227228,19.227304 0 0 1 16.97604,-21.21367 19.227228,19.227304 0 0 1 2.73878,-0.10941 z" />
          </g>
          <g
             id="g971-1-7-2-0-3"
             transform="matrix(2.4220808,0,0,2.4220808,-7.1177486,-435.39776)"
             style="stroke-width:0.999999">
            <path
               id="path814-2-7-5-7-2"
               transform="matrix(0.26458334,0,0,0.26458334,27.022154,206.51248)"
               d="m 447.86914,252 v 16 c 0,36.99995 18.25288,32 62.86914,32 16.26202,0 16.20233,16 5,16 h -67.86914 v 16 h 100 v -16 c 0,-36.00004 -17.11975,-32 -62.13086,-32 -16.73801,0 -16.00001,-16 -5,-16 h 51.13086 v -16 z"
               style="fill:#000000;fill-opacity:1;stroke:none;stroke-width:0.999999px;stroke-linecap:butt;stroke-linejoin:miter;stroke-opacity:1" />
          </g>
          <g
             id="g971-1-7-9-4-0-8"
             transform="matrix(0,-1.9376646,1.9376646,0,-352.45743,559.90606)"
             style="stroke-width:0.999999">
            <path
               id="path814-2-7-9-0-6-1"
               d="m 172.1771,276.2535 h -26.45827 l 1e-5,5.29165 h 17.63867 l -17.63868,11.64164 v 2.11666 2.11665 2.11667 l 17.63868,11.64164 h -17.63867 l -1e-5,5.29165 h 26.45827 v -7.152 L 152.66774,296.36178 172.1771,283.4055 Z"
               style="fill:#000000;fill-opacity:1;stroke:none;stroke-width:0.264582px;stroke-linecap:butt;stroke-linejoin:miter;stroke-opacity:1" />
          </g>
          <g
             id="g971-1-7-1-6-2-9"
             transform="matrix(2.4220808,0,0,2.4220808,87.725059,-435.39757)"
             style="stroke-width:0.999999">
            <path
               id="path814-2-7-2-3-3"
               transform="matrix(0.26458334,0,0,0.26458334,27.022154,206.51248)"
               d="m 447.86914,252 v 16 c 0,36.99995 18.25288,32 62.86914,32 16.26202,0 16.20233,16 5,16 h -67.86914 v 16 h 100 v -16 c 0,-36.00004 -17.11975,-32 -62.13086,-32 -16.73801,0 -16.00001,-16 -5,-16 h 51.13086 v -16 z"
               style="fill:#000000;fill-opacity:1;stroke:none;stroke-width:0.999999px;stroke-linecap:butt;stroke-linejoin:miter;stroke-opacity:1" />
          </g>
          <path
             style="vector-effect:none;fill:#000000;fill-opacity:1;stroke:none;stroke-width:1.23041;stroke-linecap:square;stroke-linejoin:round;stroke-miterlimit:4;stroke-dasharray:none;stroke-dashoffset:0;stroke-opacity:1;paint-order:stroke fill markers"
             d="m 419.68262,226.28458 h 10.25346 v 51.26725 h -10.25346 z"
             id="rect1780-16-6-1-2-8-5-8" />
        </g>
      </g>
    </g>
  </g>
</svg>
