<?xml version="1.0" encoding="UTF-8" standalone="no"?>
<!-- Created with Inkscape (http://www.inkscape.org/) -->

<svg
   width="1000"
   height="100"
   viewBox="0 0 264.58333 26.458332"
   version="1.1"
   id="svg1"
   inkscape:version="1.3.2 (091e20e, 2023-11-25, custom)"
   sodipodi:docname="HighlightLine9.svg"
   xmlns:inkscape="http://www.inkscape.org/namespaces/inkscape"
   xmlns:sodipodi="http://sodipodi.sourceforge.net/DTD/sodipodi-0.dtd"
   xmlns="http://www.w3.org/2000/svg"
   xmlns:svg="http://www.w3.org/2000/svg">
  <sodipodi:namedview
     id="namedview1"
     pagecolor="#ffffff"
     bordercolor="#666666"
     borderopacity="1.0"
     inkscape:showpageshadow="2"
     inkscape:pageopacity="0.0"
     inkscape:pagecheckerboard="0"
     inkscape:deskcolor="#d1d1d1"
     inkscape:document-units="px"
     inkscape:zoom="0.49071405"
     inkscape:cx="689.8111"
     inkscape:cy="-106.98695"
     inkscape:window-width="1920"
     inkscape:window-height="1017"
     inkscape:window-x="-8"
     inkscape:window-y="-8"
     inkscape:window-maximized="1"
     inkscape:current-layer="layer1" />
  <defs
     id="defs1" />
  <g
     inkscape:label="Layer 1"
     inkscape:groupmode="layer"
     id="layer1">
    <path
       style="opacity:0.36046512;fill:#b1b3ff;fill-opacity:1;stroke-width:6.61458;stroke-linecap:square"
       id="path33-2"
       d="m -2.7850923,29.652809 c 9.0110719,-2.01445 24.0504213,-4.586201 33.1255473,-6.318801 12.387676,-2.24457 11.060373,0.269116 23.56507,-1.230625 6.756489,-0.80734 13.577196,-0.40663 20.347156,-0.0178 11.476894,0.935531 22.162792,-3.182381 33.646929,-2.329231 9.20184,0.64047 18.43264,0.73547 27.61963,1.58598 5.54342,0.57651 11.04722,1.46784 16.46272,2.78188 2.79517,0.58713 5.50856,1.51947 8.28935,2.15455 2.77169,0.2166 5.5544,0.26345 8.33284,0.19782 3.32888,-0.10005 6.6626,-0.058 9.9879,-0.26681 1.99828,-0.12546 5.0352,-0.42189 6.98155,-0.60147 13.42233,-1.46485 26.7858,-3.38203 40.14658,-5.31667 21.89716,-3.282411 29.06382,18.453385 50.97377,15.255513 L 268.54857,-0.78674503 C 252.10974,5.1634746 243.19723,5.8820822 225.49218,7.9049665 c -3.70963,0.45497 -7.41475,0.9484201 -11.1289,1.36492 -3.03787,0.3406601 -6.08469,0.5962901 -9.12583,0.9064305 -6.60931,0.67402 -13.20634,1.46121 -19.81634,2.12807 -1.74646,0.13431 -5.07786,0.40302 -6.90195,0.49823 -3.30842,0.17267 -6.62107,0.0891 -9.93203,0.14367 -2.64064,-0.0138 -5.29062,-0.0152 -7.91637,-0.32563 -2.77052,-0.58493 -5.49259,-1.40009 -8.26831,-1.96744 -5.51033,-1.2509904 -11.10005,-2.1090204 -16.7268,-2.6378604 -1.18383,-0.0958 -2.366,-0.2148101 -3.55148,-0.2872901 C 124.10007,7.2374868 116.04674,7.3491268 108.02877,6.7205467 102.722,6.3432566 100.17225,8.1857969 94.83658,7.6861369 87.34103,6.9842169 81.866328,9.5125887 74.363287,8.8866783 70.087544,8.6051384 65.817693,8.3645283 61.532441,8.2853884 c -1.878926,-0.0347 -3.920435,-0.073 -5.809933,0.1086099 -0.695277,0.0668 -1.381929,0.2043703 -2.072893,0.3065601 C 41.143576,10.745249 38.971473,4.5177459 26.512894,6.8230865 24.768467,7.1545555 22.170372,7.5100405 16.414282,7.6233218 8.0634153,7.787669 -0.22552162,12.721933 -2.7616711,13.229166 Z"
       sodipodi:nodetypes="cccccccccscccccsscsccccscscscccscc" />
    <path
       style="opacity:0.36046512;fill:#b1b3ff;stroke-width:6.61458;stroke-linecap:square;fill-opacity:1"
       id="path34-0"
       d="M -0.93611646,28.609277 C 12.300595,26.849797 20.701024,20.968522 33.908765,19.006142 L 33.721019,6.8230865 v 0 C 20.551945,8.9574671 12.184212,14.995663 -1.0802015,16.465104 Z"
       sodipodi:nodetypes="cccscc" />
    <path
       style="opacity:0.36046512;fill:#b1b3ff;fill-opacity:1;stroke-width:6.61458;stroke-linecap:square"
       id="path35-5"
       d="m 32.056558,19.397157 c 0.44976,0.13947 0.889217,0.31803 1.349283,0.41842 2.410999,0.526091 7.996286,-1.381385 9.917105,-1.114025 2.835648,0.39468 5.676802,0.74885 8.516606,1.11245 19.457296,2.49122 0.849199,0.0377 20.903398,2.71031 12.547689,1.86607 25.093357,-5.804075 37.43292,-2.822735 l 0.28524,-12.9765113 v 0 c 0,0 -25.005355,5.3772913 -37.552886,3.5112413 C 68.854384,9.679507 56.201851,7.9532271 52.017773,7.3338171 49.187239,6.914777 46.358119,6.483737 43.537481,6.0025868 40.901638,5.552967 36.631789,7.5158631 33.854352,6.7112928 33.44393,6.5924028 31.715265,7.3316982 31.319697,7.170128 Z"
       sodipodi:nodetypes="cscccccscssscc" />
    <path
       style="opacity:0.36046512;fill:#b1b3ff;fill-opacity:1;stroke-width:6.61458;stroke-linecap:square"
       id="path36-7"
       d="m 108.23141,19.743111 c 20.63445,-3.33764 49.54133,2.292707 70.39427,1.343087 l -0.0609,-12.1889853 v 0 c 0,0 -49.75849,-4.529047 -70.53601,-2.176666 z"
       sodipodi:nodetypes="cccscc" />
    <path
       style="opacity:0.36046512;fill:#b1b3ff;fill-opacity:1;stroke-width:6.61458;stroke-linecap:square"
       id="path37-6"
       d="m 175.72898,21.541098 c 7.91765,1.07905 15.67272,-0.964516 23.62908,-0.259306 12.04839,1.0679 11.31435,1.02781 23.72535,2.2529 12.25566,1.1786 15.38993,1.101004 27.5951,2.705444 l -2.21709,-17.5165586 -18.07656,0.190629 c 0,0 5.06111,3.8368726 -7.17761,2.4751816 -7.90968,-0.837901 -15.82029,-1.6670207 -23.72926,-2.5116808 -7.04714,-0.7526301 -13.9167,1.1867158 -20.91321,0.019506 -0.84928,-0.14168 -1.68781,-0.3416102 -2.53171,-0.5124101 z"
       sodipodi:nodetypes="cscccscsscc" />
  </g>
</svg>
