<?xml version="1.0" encoding="UTF-8" standalone="no"?>
<!-- Created with Inkscape (http://www.inkscape.org/) -->

<svg
   width="500"
   height="100"
   viewBox="0 0 132.29166 26.458333"
   version="1.1"
   id="svg1"
   inkscape:version="1.3.2 (091e20e, 2023-11-25, custom)"
   sodipodi:docname="HighlightLine7.svg"
   xmlns:inkscape="http://www.inkscape.org/namespaces/inkscape"
   xmlns:sodipodi="http://sodipodi.sourceforge.net/DTD/sodipodi-0.dtd"
   xmlns="http://www.w3.org/2000/svg"
   xmlns:svg="http://www.w3.org/2000/svg">
  <sodipodi:namedview
     id="namedview1"
     pagecolor="#ffffff"
     bordercolor="#666666"
     borderopacity="1.0"
     inkscape:showpageshadow="2"
     inkscape:pageopacity="0.0"
     inkscape:pagecheckerboard="0"
     inkscape:deskcolor="#d1d1d1"
     inkscape:document-units="px"
     inkscape:zoom="0.98142812"
     inkscape:cx="278.67553"
     inkscape:cy="-86.099021"
     inkscape:window-width="1920"
     inkscape:window-height="1017"
     inkscape:window-x="-8"
     inkscape:window-y="-8"
     inkscape:window-maximized="1"
     inkscape:current-layer="layer1"
     showguides="true" />
  <defs
     id="defs1" />
  <g
     inkscape:label="Layer 1"
     inkscape:groupmode="layer"
     id="layer1">
    <path
       style="opacity:0.58604651;fill:#7bceff;stroke-width:6.61458;stroke-linecap:square"
       id="path2"
       d="m 143.18874,2.0526405 c -3.19296,0.3492127 2.30298,-0.2401866 -2.50388,0.2148917 -4.69918,0.4448847 -1.47152,0.2589178 -7.36382,0.7280864 -1.93122,0.1537716 -3.86577,0.2624466 -5.79824,0.3995862 -2.74405,0.1947344 -5.48754,0.3973563 -8.2313,0.5960345 -3.27612,0.1424459 -6.55131,0.3082877 -9.82836,0.4273378 C 99.056143,4.7966466 97.817708,4.6681001 87.215394,5.161744 83.120226,5.3524152 79.028768,5.6157801 74.935619,5.8457231 61.796231,6.5838616 63.337349,6.5012807 50.246957,7.2670751 41.53284,7.7605251 35.705299,8.1205801 27.039992,8.4960721 23.354833,8.6557611 11.721745,9.0460011 7.768909,9.1938151 -0.02255561,9.4851721 -0.20875954,9.5080321 -7.6301382,9.8468411 -13.503829,10.218452 -19.373958,10.636037 -25.252273,10.928187 l 0.120537,15.287913 v 0 c 5.85811,-0.878051 11.705304,-1.832115 17.5813316,-2.58652 2.3689698,-0.24884 4.7346447,-0.531346 7.10690915,-0.74652 C 2.1422389,22.648523 14.716839,21.721121 16.965745,21.548157 c 3.376615,-0.259697 6.751347,-0.54384 10.128595,-0.79518 7.384692,-0.549582 15.837016,-1.10472 23.205018,-1.600594 7.737631,-0.479403 16.932311,-0.02866 24.674324,-0.355671 14.769088,-0.623825 29.558998,-0.692153 44.336258,-0.368475 2.74728,0.09943 5.49385,0.221051 8.24184,0.298296 6.96198,0.195698 4.11839,-0.02821 10.25018,0.251943 0.47344,0.02163 3.48932,0.201019 4.42135,0.308558 0.29046,0.03351 0.57631,0.09908 0.86447,0.148616 z"
       sodipodi:nodetypes="cssscssscsscccscssscscssscc" />
    <path
       style="opacity:0.58604651;fill:#4cbdff;fill-opacity:1;stroke-width:6.61458;stroke-linecap:square"
       id="path8"
       d="m -10.565338,18.81439 c 8.5673397,-0.679682 17.1170009,-1.557259 25.659094,-2.498338 1.396536,-0.167188 2.79348,-0.33107 4.189628,-0.501566 1.328001,-0.162173 2.653058,-0.349057 3.982781,-0.496436 6.8925,-0.763926 13.818933,-1.200079 20.735922,-1.668499 8.517243,-0.512802 17.009472,-1.36634 25.521282,-1.95118 1.962284,-0.134828 3.926232,-0.244175 5.889347,-0.366268 13.93256,-0.877427 27.875434,-1.559384 41.827184,-2.0367783 9.79687,-0.2732779 19.59421,-0.5301601 29.39165,-0.7818706 4.30212,-0.1184543 2.20083,-0.055712 6.3039,-0.1868973 0,0 0.21296,4.9749312 0.21296,4.9749312 v 0 c -4.10666,0.08899 -2.00363,0.04417 -6.30908,0.134249 -9.80029,0.157452 -19.60303,0.153218 -29.40154,0.424772 -5.91801,0.178599 -8.20043,0.225183 -14.16157,0.496846 -9.221486,0.420244 -18.434015,1.022064 -27.643468,1.648401 -10.468599,0.799575 -20.929524,1.702266 -31.409229,2.34862 -5.363337,0.378399 -10.726724,0.754261 -16.075818,1.306229 -2.799685,0.288895 -5.807523,0.675941 -8.61361,1.000616 -1.398069,0.161767 -2.797177,0.314397 -4.19576,0.471595 -8.5445414,0.877684 -17.1109255,1.621855 -25.612527,2.860011 z" />
  </g>
</svg>
