<?xml version="1.0" encoding="UTF-8" standalone="no"?>
<!-- Created with Inkscape (http://www.inkscape.org/) -->

<svg
   width="2000"
   height="500"
   viewBox="0 0 529.16667 132.29166"
   version="1.1"
   id="svg1"
   sodipodi:docname="Highlight1.svg"
   inkscape:version="1.3.2 (091e20e, 2023-11-25, custom)"
   xmlns:inkscape="http://www.inkscape.org/namespaces/inkscape"
   xmlns:sodipodi="http://sodipodi.sourceforge.net/DTD/sodipodi-0.dtd"
   xmlns="http://www.w3.org/2000/svg"
   xmlns:svg="http://www.w3.org/2000/svg">
  <sodipodi:namedview
     id="namedview1"
     pagecolor="#ffffff"
     bordercolor="#666666"
     borderopacity="1.0"
     inkscape:showpageshadow="2"
     inkscape:pageopacity="0.0"
     inkscape:pagecheckerboard="0"
     inkscape:deskcolor="#d1d1d1"
     inkscape:zoom="0.29566667"
     inkscape:cx="1266.6291"
     inkscape:cy="-174.18264"
     inkscape:window-width="1920"
     inkscape:window-height="1017"
     inkscape:window-x="-8"
     inkscape:window-y="-8"
     inkscape:window-maximized="1"
     inkscape:current-layer="svg1" />
  <defs
     id="defs1">
    <pattern
       id="EMFhbasepattern"
       patternUnits="userSpaceOnUse"
       width="6"
       height="6"
       x="0"
       y="0" />
    <pattern
       id="EMFhbasepattern-2"
       patternUnits="userSpaceOnUse"
       width="6"
       height="6"
       x="0"
       y="0" />
    <pattern
       id="EMFhbasepattern-0"
       patternUnits="userSpaceOnUse"
       width="6"
       height="6"
       x="0"
       y="0" />
  </defs>
  <g
     id="g1"
     style="opacity:0.89883721">
    <g
       id="g39"
       transform="matrix(1.0074117,0,0,1.1094742,66.573815,133.17208)"
       style="opacity:0.952326">
      <path
         style="opacity:0.824419;fill:#7de5e6;stroke-width:6.61458;stroke-linecap:square"
         id="path22"
         d="m -0.42483404,-79.823142 c 4.58469334,10.629106 8.19570384,21.649994 11.68007704,32.679327 1.878556,5.892517 3.528264,11.852846 5.037383,17.849329 0,0 26.191165,-0.690153 26.191165,-0.690153 v 0 c -1.733772,-6.025435 -3.59586,-12.012385 -5.562455,-17.966322 -3.668215,-10.971016 -7.578481,-21.859673 -11.164554,-32.85836 z" />
      <path
         style="opacity:0.824419;fill:#7de5e6;stroke-width:6.61458;stroke-linecap:square"
         id="path23"
         d="m 43.816092,-27.952784 c 0.32462,-1.000824 0.632211,-2.007333 0.973855,-3.002473 0.757745,-2.20716 3.028738,-8.474081 3.749016,-10.429272 1.457476,-3.956317 2.884913,-7.791979 4.498025,-11.687725 0.852366,-2.058509 1.762371,-4.092676 2.643558,-6.139016 4.648128,-10.275715 9.611661,-20.402695 14.769544,-30.430856 1.467757,-2.739398 2.889308,-5.500042 4.237453,-8.299823 0,0 -26.071454,-1.141902 -26.071454,-1.141902 v 0 c -1.259888,2.774773 -2.575915,5.522055 -3.959842,8.237651 -4.983773,10.113336 -9.72063,20.343664 -14.418685,30.592482 -0.907251,2.074246 -1.853232,4.131982 -2.721753,6.222741 -1.145262,2.756942 -3.466243,8.957214 -4.530629,11.728664 -2.58282,6.725158 -1.610006,4.209161 -4.149834,10.435497 -0.435617,1.067909 -0.866738,2.137643 -1.300107,3.206467 z" />
      <path
         style="opacity:0.824419;fill:#7de5e6;stroke-width:6.61458;stroke-linecap:square"
         id="path24"
         d="m 50.422727,-102.34658 c -0.01098,5.163371 -0.162388,10.326765 -0.357386,15.486238 -0.549031,10.21969 -0.610235,20.455305 -0.725286,30.686391 2.65e-4,10.011325 -2.65e-4,20.022719 -0.03598,30.033965 -0.01556,1.846897 -0.02537,3.587072 -0.05706,5.425649 -0.179459,10.411654 -1.640049,6.021449 26.904249,1.652741 1.469173,-0.224857 0.848437,-2.848996 1.290968,-4.267868 0.615471,-1.973351 1.255302,-3.939021 1.882955,-5.908531 3.365024,-10.061419 6.098884,-20.314968 9.101928,-30.485802 1.993281,-6.750928 2.164689,-7.166951 4.226542,-13.605624 2.179238,-6.826726 4.680953,-13.566415 6.394291,-20.532555 0.125963,-0.533614 0.251928,-1.067231 0.377894,-1.600846 0,0 -26.212699,-0.571592 -26.212699,-0.571592 v 0 c -0.108046,0.522647 -0.216094,1.045294 -0.324139,1.567944 -1.542849,6.886427 -3.696867,13.612493 -5.699643,20.374216 -4.369708,14.694556 -8.262795,29.544761 -13.393238,44.001319 -0.72785,1.937065 -1.386493,3.901564 -2.18355,5.811194 -0.494784,1.18543 -2.942275,3.187417 -1.687928,3.464302 27.042448,5.969353 25.732748,10.025098 25.428024,0.08352 -0.05182,-1.69069 -0.09497,-3.768437 -0.13263,-5.427556 -0.185923,-9.992881 -0.4015,-19.987366 -0.304837,-29.982528 0.140277,-10.207524 0.403262,-20.413921 1.050896,-30.603697 0.263948,-5.200396 0.517977,-10.401361 0.797719,-15.60088 z" />
      <path
         style="opacity:0.824419;fill:#7de5e6;stroke-width:6.61458;stroke-linecap:square"
         id="path25"
         d="m 73.953094,-97.276662 c 1.811912,14.217589 2.328159,28.561088 2.838691,42.872215 0.37525,10.03718 0.312536,20.094792 0.857014,30.125303 0.05075,0.83704 0.101492,1.674079 0.152239,2.511119 0,0 26.088372,-0.19923 26.088372,-0.19923 v 0 c -0.0765,-0.826511 -0.15308,-1.653022 -0.22962,-2.479533 -0.75012,-10.006309 -1.24535,-20.029331 -1.62925,-30.055997 -0.35748,-8.454054 -0.70372,-16.908838 -1.07712,-25.362196 -0.20054,-4.539996 -0.46461,-9.077182 -0.64255,-13.61812 -0.0514,-1.312518 -0.0674,-2.626188 -0.10115,-3.939283 z" />
      <path
         style="opacity:0.824419;fill:#7de5e6;stroke-width:6.61458;stroke-linecap:square"
         id="path26"
         d="m 105.55291,-17.948462 c 0.89249,-3.617944 1.57143,-6.295603 2.40047,-10.035705 0.75927,-3.425348 2.761,-13.152098 3.38394,-16.160649 2.77075,-13.381495 1.27975,-6.290087 4.12082,-19.622836 0.66681,-2.947103 1.32308,-5.89661 2.00041,-8.841311 1.23652,-5.375793 1.97694,-8.499919 3.31655,-13.734367 1.07231,-4.190011 2.19102,-8.366022 3.23529,-12.563361 0.1881,-0.927148 0.3762,-1.854299 0.5643,-2.781449 0,0 -26.042643,-0.49232 -26.042643,-0.49232 v 0 c -0.160923,0.89728 -0.321845,1.79455 -0.48277,2.691828 -1.310317,6.331352 -2.839834,12.612301 -4.190555,18.934647 -0.526426,2.464054 -1.004007,4.938308 -1.516491,7.405301 -0.613646,2.953949 -1.241259,5.904976 -1.861886,8.857464 -2.019012,9.509202 -4.074576,19.002576 -6.338748,28.457033 -1.00199,4.183983 -2.075542,8.75756 -3.360229,12.897024 -0.41316,1.331269 -0.928793,2.628549 -1.39319,3.942823 z" />
      <path
         style="opacity:0.824419;fill:#7de5e6;stroke-width:6.61458;stroke-linecap:square"
         id="path27"
         d="m 99.159887,-106.58674 c 0.549505,6.31227 1.121003,12.623788 1.536343,18.946801 0.26551,4.042071 0.64602,11.536603 0.85788,15.567548 0.64483,13.734317 1.5689,27.452836 2.11494,41.191759 0.16132,6.45652 0.84851,12.872233 1.58569,19.282185 0,0 26.03398,-0.341491 26.03398,-0.341491 v 0 c -0.50482,-3.387697 -0.99285,-6.776982 -1.30236,-10.189652 -0.12827,-1.414311 -0.21234,-2.832285 -0.31461,-4.248713 -0.11155,-1.544856 -0.21789,-3.090083 -0.32683,-4.635126 -0.87526,-13.727054 -1.87335,-27.447324 -2.48998,-41.18952 -0.17189,-3.387656 -0.62542,-12.163002 -0.76563,-15.57447 -0.0989,-2.406695 -0.15218,-4.8151 -0.24682,-7.221966 -0.18484,-4.701263 -0.27946,-4.896033 -0.36479,-9.191865 -0.0159,-0.79834 -0.003,-1.59699 -0.005,-2.39549 z" />
      <path
         style="opacity:0.824419;fill:#7de5e6;stroke-width:6.61458;stroke-linecap:square"
         id="path28"
         d="m 132.60151,-8.4467067 c 0.25783,-1.7602123 0.4974,-3.5231993 0.7735,-5.2806393 0.95625,-6.086536 1.59597,-9.965224 3.0024,-16.096371 2.12971,-9.284263 4.96877,-18.384789 7.68702,-27.507024 4.20494,-14.201826 9.28208,-28.123351 13.63753,-42.27667 1.38623,-4.632979 0.73097,-2.434499 1.96715,-6.595039 0,0 -25.99869,-0.70747 -25.99869,-0.70747 v 0 c -1.08173,4.14831 -0.50378,1.9579 -1.73842,6.56999 -1.10493,3.998718 -1.52599,5.590449 -2.75695,9.729371 -2.3286,7.82955 -4.86871,15.590059 -7.3118,23.383742 -0.95666,3.051829 -1.88064,6.113804 -2.82096,9.170704 -2.7441,9.195094 -5.53517,18.36883 -7.80191,27.697232 -2.14852,8.841878 -1.71601,7.81572 -3.5136,16.154858 -0.39293,1.822848 -0.82973,3.635966 -1.24459,5.4539488 z" />
      <path
         style="opacity:0.824419;fill:#7de5e6;stroke-width:6.61458;stroke-linecap:square"
         id="path29"
         d="m 135.13892,-111.96316 c -0.0477,11.63117 -0.19088,23.261421 -0.16826,34.892809 0.0732,6.624177 0.0656,13.253437 0.38331,19.872364 0.22919,4.774798 0.6686,9.531509 1.1381,14.287058 0.12055,1.161061 0.22573,2.323817 0.36164,3.483182 0.38837,3.313006 0.90362,6.604582 1.20896,9.928071 0.30728,3.344598 0.32224,4.241329 0.4988,7.585222 0.16483,4.588529 0.1047,2.375968 0.18843,6.63746 0,0 26.00303,-0.08197 26.00303,-0.08197 v 0 c -0.18613,-4.294815 -0.0882,-2.063414 -0.29442,-6.694176 -0.20379,-3.746079 -0.37111,-7.495962 -0.78438,-11.226703 -0.25157,-2.271054 -0.57197,-4.185285 -0.88008,-6.449139 -0.15721,-1.155152 -0.29949,-2.312286 -0.44924,-3.468428 -0.44438,-3.585038 -0.65331,-5.046163 -0.98813,-8.753404 -0.75427,-8.351332 -0.96538,-16.738983 -1.04861,-25.120345 0.003,-2.527041 -0.0148,-5.054201 0.01,-7.58112 0.0444,-4.53078 0.18617,-9.772742 0.3492,-14.317898 0.12424,-3.463533 0.25328,-6.711123 0.53239,-10.149273 0.0704,-0.86666 0.18579,-1.72907 0.27869,-2.59361 z" />
      <path
         style="opacity:0.824419;fill:#7de5e6;stroke-width:6.61458;stroke-linecap:square"
         id="path30"
         d="m 165.21709,-12.219091 c 0.16161,-1.017607 0.32942,-2.034249 0.48483,-3.052821 0.27213,-1.783522 0.51445,-3.571596 0.79778,-5.353372 0.95041,-5.976612 1.47443,-8.73616 2.58271,-14.817876 0.54901,-3.012664 1.05206,-6.034211 1.65582,-9.03638 0.6319,-3.142044 1.36709,-6.262428 2.05063,-9.393642 1.92044,-8.52274 4.18892,-16.959189 6.53726,-25.371827 0.57765,-2.069328 1.14321,-4.142211 1.74905,-6.203461 0.7543,-2.566357 1.94275,-6.242245 2.7821,-8.869045 1.13396,-3.691953 2.49476,-7.316145 3.48667,-11.051985 0.38462,-1.4486 0.55363,-2.40822 0.84045,-3.8521 0,0 -26.19242,-0.49627 -26.19242,-0.49627 v 0 c -0.91999,4.98813 -2.55964,9.785487 -3.97216,14.6485 -0.8933,3.196799 -1.60508,5.690166 -2.44701,8.958881 -0.53211,2.065888 -1.02717,4.141147 -1.54704,6.210152 -2.13156,8.48337 -4.34439,16.947533 -6.26509,25.482428 -0.70601,3.153143 -1.44265,6.299583 -2.11803,9.459431 -2.29831,10.75296 -4.11072,21.610701 -6.67654,32.305816 z" />
      <path
         style="opacity:0.824419;fill:#7de5e6;stroke-width:6.61458;stroke-linecap:square"
         id="path31"
         d="m 162.47865,-109.81567 c 0.0844,1.32772 0.18293,2.65462 0.25329,3.98316 0.0916,1.7296 0.13752,3.46144 0.23257,5.19086 0.15073,2.742439 0.73622,11.435533 0.89842,14.007 0.7108,11.269192 0.14018,3.469706 1.04416,14.904426 0.90115,8.699088 1.7684,17.401622 2.68912,26.098685 0.11576,1.093534 1.20338,11.296153 1.42718,12.987351 0.22721,1.716921 0.52883,3.423171 0.79324,5.134758 0.65719,4.125802 1.41816,8.232494 2.23064,12.329992 0,0 26.14733,-0.56515 26.14733,-0.56515 v 0 c -0.9742,-4.04484 -1.95821,-8.087739 -2.68412,-12.187297 -0.29844,-1.681133 -0.62318,-3.357808 -0.89533,-5.043397 -0.60098,-3.722294 -1.34328,-9.326028 -1.78978,-12.934995 -1.0701,-8.649515 -1.95728,-17.321498 -2.57483,-26.015802 -0.63698,-8.403179 -0.53538,-6.520897 -1.00582,-14.859137 -0.35882,-6.359723 -0.67344,-12.724347 -0.63856,-19.096764 0.007,-1.31165 0.068,-2.62246 0.10192,-3.93369 z" />
      <path
         style="opacity:0.824419;fill:#7de5e6;stroke-width:6.61458;stroke-linecap:square"
         id="path32"
         d="m 199.39166,-16.641781 c 0.0699,-0.798256 0.0914,-1.603622 0.20969,-2.394768 0.98415,-6.5837 2.78739,-12.966851 4.45753,-19.378476 1.61434,-6.197345 2.41087,-9.390504 3.97726,-15.581286 2.56226,-10.201504 4.96324,-20.468164 6.82821,-30.842476 0.94589,-5.261754 1.26642,-7.934715 1.98211,-13.111833 0.65504,-4.68412 1.09884,-9.39563 1.33022,-14.1304 l -26.03292,1.91801 v 0 c 0,0 -0.28233,9.24412 -0.78282,13.833708 -0.67577,5.73189 -0.75986,7.040977 -1.76967,12.942517 -1.77111,10.350679 -4.28708,20.526046 -6.79043,30.697715 -2.04543,8.155313 -1.81045,7.3612 -4.00874,15.545083 -0.96558,3.594692 -2.98784,10.86965 -3.93517,14.557716 -0.4439,1.728168 -0.88477,3.45812 -1.25912,5.204513 -0.19643,0.916343 -0.30145,1.852425 -0.45217,2.778639 z"
         sodipodi:nodetypes="csscscccscscssscc" />
      <path
         style="opacity:0.824419;fill:#7de5e6;stroke-width:6.61458;stroke-linecap:square"
         id="path33"
         d="m 203.7159,-111.49439 c -0.25018,9.16434 0.004,18.331822 0.11597,27.496227 0.0322,2.782456 -0.16533,12.502138 -0.13323,15.284594 0.0308,2.669847 0.0285,5.340281 0.0924,8.009544 0.228,9.527865 0.76066,19.050592 1.40321,28.558161 0.36768,5.925878 1.26325,11.794331 2.52892,17.588835 l 0.39558,1.955035 26.15807,-0.521541 v 0 c -0.13221,-0.655332 -0.26442,-1.310664 -0.39662,-1.965996 -0.12973,-0.665946 -0.23969,-1.336046 -0.38917,-1.997836 -1.22639,-5.429536 0.46353,2.855778 -0.94728,-3.935302 -0.77772,-3.743658 -1.34824,-7.526433 -1.74951,-11.328983 -0.46948,-5.014634 -0.726,-7.381478 -1.05236,-12.552912 -0.67555,-10.704642 -0.63346,-28.372762 -0.61056,-39.096417 0.0908,-9.092689 0.12477,-18.209319 0.90758,-27.274559 z"
         sodipodi:nodetypes="ccscccccscsscsccc" />
      <path
         style="opacity:0.824419;fill:#7de5e6;stroke-width:6.61458;stroke-linecap:square"
         id="path34"
         d="m 235.07088,-14.930492 c -0.042,-1.561623 -0.18673,-3.127515 -0.12592,-4.684868 0.35702,-9.143594 2.37546,-18.029363 4.44993,-26.845954 1.65725,-7.043318 4.36112,-17.516659 6.12632,-24.446217 1.05849,-4.066962 2.12017,-8.133 3.17547,-12.200888 0.95106,-3.666033 1.88537,-7.336932 2.84361,-11.000875 2.00088,-7.650506 2.52593,-5.739979 4.06046,-13.515696 l -25.93925,1.96559 v 0 c 0,0 -0.18827,1.84019 -0.32076,2.75399 -0.97803,6.745464 -0.93279,3.843542 -2.50214,10.451164 -0.86962,3.661497 -1.74748,7.32089 -2.6561,10.971688 -1.01318,4.070865 -2.07279,8.1286 -3.10919,12.192899 -0.78576,2.979588 -5.60943,21.230848 -6.43912,24.529643 -2.67134,10.621063 -5.28393,21.392643 -5.54515,32.476086 z"
         sodipodi:nodetypes="csscssccsssscscc" />
      <path
         style="opacity:0.824419;fill:#7de5e6;stroke-width:6.61458;stroke-linecap:square"
         id="path35"
         d="m 239.23096,-114.0698 c -0.61392,5.1813 -1.88747,10.26759 -2.80131,15.404571 -0.2831,1.591349 -0.52571,3.18891 -0.78855,4.783364 -0.20635,1.638488 -0.47369,3.271542 -0.6191,4.915455 -0.31868,3.602386 -0.38879,8.137829 -0.43682,11.718676 -0.0841,6.273253 -0.0504,12.546725 -0.0855,18.819517 -0.0735,9.422156 -0.42694,18.843387 -1.04667,28.25464 -0.0733,0.990296 -0.15846,1.980017 -0.21902,2.970938 -0.12313,2.026908 -0.16355,3.000904 -0.0751,5.008539 0.0972,2.205212 0.33372,4.407514 0.56327,6.599618 12.74457,4.222361 32.1311,1.359125 32.14817,0.396928 0.0353,-1.976768 0.0633,-3.954046 0.14285,-5.929526 0.25853,-6.417809 0.59269,-10.333121 1.0582,-16.886472 0.83238,-9.912535 2.58593,-19.70555 4.7425,-29.405633 1.14861,-5.166444 2.296,-9.768792 3.73076,-14.833174 0.54975,-1.940403 1.16062,-3.862959 1.74093,-5.794441 1.5634,-4.737957 3.5819,-9.295558 5.62411,-13.83936 l -24.85454,-2.23103 v 0 c 0,0 -4.91693,10.468881 -6.32264,15.357732 -0.53325,1.958311 -1.09901,3.90806 -1.59977,5.874933 -1.23417,4.847556 -2.38606,10.084752 -3.37922,14.966468 -1.99954,9.828432 -3.71664,19.71906 -4.78009,29.697386 -2.16208,22.916072 0.28327,-3.236841 -1.54262,16.941694 -0.80341,8.879243 19.25208,10.927213 18.90195,-7.57255 0.38392,-9.465091 0.76918,-18.932668 0.68056,-28.399753 0.0115,-6.252154 -0.0453,-12.507039 0.0947,-18.760487 0.0867,-3.874263 0.20758,-7.592595 0.59084,-11.451614 0.15973,-1.608463 0.41654,-3.207567 0.62481,-4.811352 0.27118,-1.568903 0.51785,-3.141802 0.81352,-4.706716 0.99439,-5.263121 2.37541,-10.446811 3.44079,-15.695361 z"
         sodipodi:nodetypes="cscsscccsccccsscccscsscsccsscscc" />
      <path
         style="opacity:0.824419;fill:#7de5e6;stroke-width:6.61458;stroke-linecap:square"
         id="path36"
         d="m 260.8895,-104.81517 c 1.63223,8.847881 2.06119,17.851736 2.68086,26.809885 1.03493,12.80116 1.68832,25.627176 2.4033,38.448622 0.36595,6.219343 1.00211,12.428064 2.24571,18.536098 0.53311,2.025764 1.02724,4.042972 1.26814,6.12602 8.80687,-0.398453 17.83205,0.793665 26.42061,-1.195361 1.60941,-0.372725 0.01,-3.306851 0.13324,-4.954244 0.21945,-2.928698 0.53835,-5.849973 0.89485,-8.765168 1.06944,-8.745643 2.32251,-16.553714 3.92819,-25.27781 0.85648,-4.653523 1.8383,-9.283104 2.75743,-13.924658 2.25092,-10.450801 4.40307,-20.930208 7.10811,-31.276554 1.27141,-4.86288 1.88198,-6.72055 3.26795,-11.25555 0,0 -25.71049,-0.69704 -25.71049,-0.69704 v 0 c -1.08698,4.33961 -1.73688,6.82591 -2.74275,11.38541 -2.29751,10.414411 -4.11784,20.924377 -6.27951,31.366614 -0.777,3.90871 -4.7674,23.913745 -5.49741,27.85955 -0.38401,2.075601 -2.95809,17.21596 -3.45466,20.37105 -0.25628,1.628263 -2.29254,4.516816 -0.68863,4.896738 8.49921,2.01321 17.45218,0.760676 26.17827,1.141014 -0.24289,-1.8277 -0.47556,-3.455726 -1.01989,-5.226173 -0.11925,-0.387909 -0.23246,-0.777645 -0.34872,-1.166468 -0.29676,-1.153028 -0.62164,-2.367549 -0.86059,-3.528675 -0.98959,-4.808286 -1.52124,-9.701021 -1.96217,-14.584714 -0.98637,-12.80492 -1.55218,-25.637606 -2.48301,-38.44677 -0.56137,-8.977815 -1.00322,-17.964086 -1.8886,-26.918176 z" />
      <path
         style="opacity:0.824419;fill:#7de5e6;stroke-width:6.61458;stroke-linecap:square"
         id="path37"
         d="m 287.03889,-104.75072 c 1.92566,5.408982 3.68797,10.890032 4.9766,16.490351 0.62092,2.698512 1.16551,5.414928 1.66391,8.138732 0.52128,2.84876 0.92964,5.717029 1.39446,8.575542 0.42328,2.853272 0.86188,5.704311 1.26984,8.559813 0.38841,2.718663 0.73433,5.443265 1.11916,8.162433 1.35634,9.583156 2.79699,19.155754 4.30337,28.716392 0.23884,1.415666 0.46702,2.83317 0.71649,4.246998 0.20744,1.175443 0.77698,4.028126 0.97594,5.405897 0.0456,0.316119 -0.2413,0.946174 0.078,0.955017 26.92818,0.7458 27.09531,8.4923939 26.27071,-1.611827 0.0694,-1.05501 0.10854,-2.112458 0.20834,-3.165032 0.42698,-4.503639 0.95435,-8.238257 1.6592,-12.776843 1.27317,-8.198178 2.83953,-16.336441 4.44288,-24.474741 2.40192,-12.428342 5.67947,-24.657248 9.24412,-36.794948 0.47633,-1.617017 0.95266,-3.234034 1.42899,-4.851051 0,0 -25.70467,-0.716084 -25.70467,-0.716084 v 0 c -0.44762,1.614236 -0.89524,3.228473 -1.34286,4.842709 -0.6108,2.126091 -2.58258,8.947615 -3.1319,11.031511 -2.26293,8.584488 -4.01924,17.301762 -5.74485,26.00562 -2.58434,13.629097 -5.21203,27.257867 -7.33589,40.967483 -0.44963,9.8064333 -0.45495,2.124263 26.31202,1.091886 0.3533,-0.01363 -0.18227,-0.683279 -0.26538,-1.026927 -0.43259,-1.788678 -0.87093,-3.576151 -1.27553,-5.371367 -0.31504,-1.397851 -0.60137,-2.802017 -0.90207,-4.203025 -0.97615,-5.057436 -1.36064,-6.89937 -2.2498,-12.209991 -1.8465,-11.028569 -3.15582,-22.137103 -4.90697,-33.18065 -0.58187,-3.747153 -2.00025,-13.137316 -2.74399,-16.934097 -1.10178,-5.624529 -2.71568,-11.138931 -4.14316,-16.684751 z" />
      <path
         style="opacity:0.824419;fill:#7de5e6;stroke-width:6.61458;stroke-linecap:square"
         id="path38"
         d="m 319.68231,-98.080043 c 0.15761,0.610624 0.32874,1.217917 0.47281,1.831877 0.80552,3.432609 0.78594,3.681876 1.53122,7.409807 0.7429,3.716031 1.46886,7.10052 2.18802,10.832428 0.40013,2.076455 0.77235,4.158197 1.15854,6.237298 2.02617,11.541879 2.89184,23.238584 4.19555,34.872535 0.22907,2.044248 0.4981,4.08382 0.74715,6.125731 0.5977,4.284631 1.92853,3.272122 2.64172,7.539963 0.38269,2.289949 0.85762,4.563577 1.2895,6.844444 0.24283,1.35354 0.34147,1.834039 0.53361,3.154607 1.51924,10.4418009 -3.1255,5.5497754 26.59388,3.7549456 1.07431,-0.064881 0.16279,-2.1463766 0.24421,-3.2195646 1.02687,-9.485373 2.24381,-13.520387 4.64589,-22.743595 0.59356,-2.279184 1.23621,-4.545311 1.85433,-6.817968 3.39106,-11.678491 6.93753,-23.311043 10.49697,-34.93907 0.94721,-3.312364 1.94562,-6.617528 2.60234,-10.002795 l -26.25574,-0.412118 v 0 c -0.39135,3.281492 -1.13149,6.508904 -1.90021,9.719326 -1.29559,5.142418 -2.66293,10.256052 -4.15518,15.345833 -1.28455,4.381307 -2.66361,8.734642 -3.93554,13.119634 -0.62775,2.164287 -1.21526,4.340048 -1.8229,6.510073 -0.61497,2.290951 -1.25561,4.575173 -1.84494,6.872854 -0.59307,2.312215 -1.14009,4.636005 -1.70204,6.95598 l 21.6961,17.630759 c 0.32142,0.0088 -0.10961,-0.633631 -0.16388,-0.950543 -0.25778,-1.505833 -0.51038,-3.013149 -0.84331,-4.504826 -0.49998,-2.270495 -1.08053,-4.520448 -1.59001,-6.788578 -0.94543,-4.209128 -2.50246,-3.149434 -3.212,-7.40373 -0.95583,-6.575981 -0.92008,-5.962484 -1.68568,-12.819793 -1.05304,-9.431874 -1.76969,-18.907744 -3.30052,-28.2811 -0.34647,-2.09178 -0.67868,-4.185963 -1.03936,-6.275338 -0.32666,-1.892223 -0.69573,-3.776961 -1.02256,-5.66915 -0.83082,-4.809744 -1.55755,-9.636958 -2.12538,-14.485027 z"
         sodipodi:nodetypes="cssscscscsscsccccscsscsccccscscsscc" />
      <path
         style="opacity:0.824419;fill:#7de5e6;stroke-width:6.61458;stroke-linecap:square"
         id="path39"
         d="m 354.004,-86.114669 c 2.30937,5.932858 3.90261,12.117083 5.45677,18.281128 2.50372,10.055275 4.51117,20.229539 6.41882,30.412671 0.67955,3.707569 1.18665,7.447582 1.3326,11.215574 0.0279,0.749074 0.0148,1.49839 -0.003,2.247425 0,0 26.3211,0.0078 26.3211,0.0078 v 0 c -0.013,-0.803611 -0.0249,-1.607455 -0.0713,-2.410037 -0.30414,-3.908074 -1.11054,-7.760061 -1.93421,-11.585605 -2.30989,-10.144289 -4.50898,-20.312885 -6.67779,-30.488207 -0.98531,-4.286049 -1.20372,-5.322803 -2.23486,-9.486522 -0.53964,-2.179166 -1.12874,-4.369122 -1.65677,-6.553308 -0.34959,-1.446149 -0.3367,-1.431687 -0.5584,-2.588263 z" />
    </g>
    <path
       style="opacity:0.77209302;fill:#7de5e6;stroke-width:6.30369;stroke-linecap:square"
       id="path3"
       d="m 462.73516,106.38333 c -0.58048,-4.95531 0.99722,-9.812361 1.61239,-14.693522 1.5583,-7.698345 6.58337,-14.02594 10.61705,-20.572771 2.92097,-4.422691 6.89496,-7.999958 10.26858,-12.05269 0.93635,-2.920843 -4.69612,-0.506153 -6.32708,-0.534336 -2.48049,0.790381 -6.22904,0.793868 -7.98595,2.09803 3.4444,1.322658 6.39292,3.498587 9.55968,5.353641 7.65257,3.964553 16.30403,5.360072 24.72253,6.743895 4.05756,0.42995 8.20968,0.961325 12.22551,-0.0085 3.43054,-0.584726 6.86107,-1.169451 10.29161,-1.754177 -9.73647,-0.0412 -19.8825,-0.96627 -28.62006,-5.5989 -4.14716,-2.266834 -7.09826,-6.046764 -10.59675,-9.105019 -3.32808,-1.778692 -7.25922,-0.203346 -10.8543,-0.459935 -3.53078,0.16682 -7.08211,-0.12531 -10.59922,-0.05566 -2.54232,2.731791 -1.86797,7.441183 -3.78671,10.792108 -4.54671,12.859344 -11.84617,24.86078 -21.86611,34.189255 -1.16532,1.52732 -4.89707,4.58173 -3.92761,5.59247 8.42215,0.022 16.84429,0.0441 25.26644,0.0661 z" />
    <path
       style="opacity:0.772093;fill:#7de5e6;stroke-width:6.30369;stroke-linecap:square"
       id="path3-7"
       d="m 66.13469,44.690076 c 0.58048,4.95531 0.59028,9.812361 -0.02489,14.693522 -1.5583,7.698345 -4.99587,14.02594 -9.02955,20.572771 -2.92097,4.422691 -6.89496,7.999958 -10.26858,12.05269 -0.93635,2.920843 4.69612,0.506153 6.32708,0.534336 2.48049,-0.790381 6.22904,-0.793868 7.98595,-2.09803 -3.4444,-1.322658 -6.39292,-3.498587 -9.55968,-5.353641 -7.65257,-3.964553 -16.30403,-5.360072 -24.72253,-6.743895 -4.05756,-0.42995 -8.20968,-0.961325 -12.22551,0.0085 L 4.3253699,80.110506 c 9.7364701,0.0412 19.8825001,0.96627 28.6200601,5.5989 4.14716,2.266834 7.09826,6.046764 10.59675,9.105019 1.481027,0.791535 13.59097,0.671299 21.45352,0.515595 2.54232,-2.731791 3.117541,-6.409897 4.315877,-10.792108 3.59769,-13.15644 8.142007,-24.86078 18.161947,-34.189256 1.16532,-1.52732 5.999277,-5.73027 5.029817,-6.74101 -8.42215,-0.022 -17.946497,1.10444 -26.368651,1.08244 z"
       sodipodi:nodetypes="sccccccccccccsccss" />
  </g>
</svg>
