<?xml version="1.0" encoding="UTF-8" standalone="no"?>
<!-- Created with Inkscape (http://www.inkscape.org/) -->

<svg
   width="2000"
   height="500"
   viewBox="0 0 529.16667 132.29166"
   version="1.1"
   id="svg1"
   sodipodi:docname="Highlight2.svg"
   inkscape:version="1.3.2 (091e20e, 2023-11-25, custom)"
   xmlns:inkscape="http://www.inkscape.org/namespaces/inkscape"
   xmlns:sodipodi="http://sodipodi.sourceforge.net/DTD/sodipodi-0.dtd"
   xmlns="http://www.w3.org/2000/svg"
   xmlns:svg="http://www.w3.org/2000/svg">
  <sodipodi:namedview
     id="namedview1"
     pagecolor="#ffffff"
     bordercolor="#666666"
     borderopacity="1.0"
     inkscape:showpageshadow="2"
     inkscape:pageopacity="0.0"
     inkscape:pagecheckerboard="0"
     inkscape:deskcolor="#d1d1d1"
     inkscape:zoom="0.20906791"
     inkscape:cx="844.2233"
     inkscape:cy="-188.93383"
     inkscape:window-width="1920"
     inkscape:window-height="1017"
     inkscape:window-x="-8"
     inkscape:window-y="-8"
     inkscape:window-maximized="1"
     inkscape:current-layer="svg1" />
  <defs
     id="defs1">
    <pattern
       id="EMFhbasepattern"
       patternUnits="userSpaceOnUse"
       width="6"
       height="6"
       x="0"
       y="0" />
    <pattern
       id="EMFhbasepattern-2"
       patternUnits="userSpaceOnUse"
       width="6"
       height="6"
       x="0"
       y="0" />
    <pattern
       id="EMFhbasepattern-0"
       patternUnits="userSpaceOnUse"
       width="6"
       height="6"
       x="0"
       y="0" />
  </defs>
  <g
     id="g23"
     transform="translate(-1.7906345,-7.4175816)">
    <path
       style="opacity:0.660465;fill:#4cbdff;stroke-width:6.61458;stroke-linecap:square"
       id="path22"
       d="m 467.0091,22.644515 c -33.76985,1.821507 -67.58342,2.543192 -101.39148,3.207369 -66.51222,0.954477 -133.03269,0.682146 -199.54586,0.02152 -28.65952,-0.309792 -57.3207,-0.224049 -85.980939,-0.113853 0,0 0.04437,23.81158 0.04437,23.81158 v 0 c 28.636649,-0.957596 57.280129,-1.608902 85.934319,-1.718942 66.5205,-0.524542 133.04078,-0.538385 199.56309,-0.464048 35.49404,0.203774 24.95222,0.08219 57.81376,0.485397 9.62906,0.118147 22.82481,0.247957 32.86654,0.558556 2.79712,0.08652 7.45064,0.34086 10.6962,0.513019 z" />
    <path
       style="opacity:0.660465;fill:#4cbdff;stroke-width:6.61458;stroke-linecap:square"
       id="path22-3"
       d="m 80.090851,58.426692 c 33.769849,1.821507 67.583419,2.543192 101.391479,3.207369 66.51222,0.954477 133.03269,3.327979 199.54586,2.667353 28.65952,-0.309792 57.3207,-0.224049 85.98094,-0.113853 l -0.0444,23.81158 v 0 c -28.63665,-0.957596 -57.28013,-1.608902 -85.93432,-1.718942 -66.5205,-0.524542 -133.04078,-0.538385 -199.56309,-0.464048 -35.49404,0.203774 -24.95222,0.08219 -57.81376,0.485397 -9.62906,0.118147 -22.82481,0.247957 -32.866539,0.558556 -2.79712,0.08652 -7.45064,0.34086 -10.6962,0.513019 z"
       sodipodi:nodetypes="cccccsccsscc" />
    <path
       style="opacity:0.660465;fill:#4cbdff;stroke-width:6.61458;stroke-linecap:square"
       id="path23"
       d="m 463.71033,44.309474 c -48.54442,2.63652 -97.19323,3.130775 -145.79205,2.029359 -12.82198,-0.290589 -25.63802,-0.801629 -38.45703,-1.202444 -46.19598,-1.784691 -92.37371,-4.000547 -138.56717,-5.848672 -19.84549,-0.411475 -39.69625,-0.475089 -59.54535,-0.481854 -8.820857,-0.03182 -17.677104,0.09194 -26.47564,-0.637934 0,0 -0.187454,25.970105 -0.187454,25.970105 v 0 c 8.881078,0.55149 17.806106,0.174262 26.695987,0.09458 19.811757,-0.519525 39.628787,-1.035373 59.449407,-0.783672 46.19447,0.563234 92.38582,1.347949 138.57712,2.12499 26.51834,0.54896 53.03456,1.197589 79.55343,1.720972 34.91987,0.689187 69.87222,0.867474 104.74875,2.939026 z" />
    <path
       style="opacity:0.660465;fill:#4cbdff;stroke-width:6.61458;stroke-linecap:square"
       id="path23-0"
       d="m 69.037631,82.524836 c 48.544419,2.63652 97.193219,3.130775 145.792049,2.029359 12.82198,-0.290589 25.63802,-0.801629 38.45703,-1.202444 46.19598,-1.784691 92.37371,-4.000547 138.56717,-5.848672 19.84549,-0.411475 39.69625,-0.475089 59.54535,-0.481854 8.82085,-0.03182 17.6771,0.09194 26.47564,-0.637934 0,0 0.18745,25.970099 0.18745,25.970099 v 0 c -8.88108,0.55149 -17.80611,0.17427 -26.69599,0.0946 -19.81175,-0.51952 -39.62878,-1.03537 -59.4494,-0.78367 -46.19447,0.56324 -92.38582,1.34795 -138.57712,2.12499 -26.51834,0.54896 -53.03456,1.19759 -79.55343,1.72097 -34.91987,0.68919 -69.87222,0.86748 -104.748749,2.93903 z" />
    <path
       style="opacity:0.660465;fill:#4cbdff;stroke-width:6.61458;stroke-linecap:square"
       id="path23-0-4"
       d="m 469.12581,122.04497 c -48.54442,-2.63652 -97.19322,-3.13078 -145.79205,-2.02936 -12.82198,0.29059 -25.63802,0.80163 -38.45703,1.20244 -46.19598,1.78469 -92.37371,4.00055 -138.56717,5.84867 -19.84549,0.41148 -39.69625,0.47509 -59.545362,0.48186 -8.82085,0.0318 -17.6771,-0.0919 -26.475641,0.63793 0,0 -0.18745,-25.97011 -0.18745,-25.97011 v 0 c 8.881081,-0.55149 17.806111,-0.17427 26.695991,-0.0946 19.811762,0.51952 39.628792,1.03537 59.449412,0.78367 46.19447,-0.56324 92.38582,-1.34795 138.57712,-2.125 26.51834,-0.54896 53.03456,-1.19759 79.55343,-1.72097 34.91987,-0.68919 69.87222,-0.86748 104.74875,-2.93903 z" />
  </g>
</svg>
