<?xml version="1.0" encoding="UTF-8" standalone="no"?>
<!-- Created with Inkscape (http://www.inkscape.org/) -->

<svg
   width="1000"
   height="100"
   viewBox="0 0 264.58333 26.458333"
   version="1.1"
   id="svg1"
   inkscape:version="1.3.2 (091e20e, 2023-11-25, custom)"
   sodipodi:docname="HighlightLine2.svg"
   xmlns:inkscape="http://www.inkscape.org/namespaces/inkscape"
   xmlns:sodipodi="http://sodipodi.sourceforge.net/DTD/sodipodi-0.dtd"
   xmlns="http://www.w3.org/2000/svg"
   xmlns:svg="http://www.w3.org/2000/svg">
  <sodipodi:namedview
     id="namedview1"
     pagecolor="#ffffff"
     bordercolor="#666666"
     borderopacity="1.0"
     inkscape:showpageshadow="2"
     inkscape:pageopacity="0.0"
     inkscape:pagecheckerboard="0"
     inkscape:deskcolor="#d1d1d1"
     inkscape:document-units="px"
     inkscape:zoom="2.7758979"
     inkscape:cx="900.24926"
     inkscape:cy="-5.5837789"
     inkscape:window-width="1920"
     inkscape:window-height="1017"
     inkscape:window-x="-8"
     inkscape:window-y="-8"
     inkscape:window-maximized="1"
     inkscape:current-layer="layer1" />
  <defs
     id="defs1" />
  <g
     inkscape:label="Layer 1"
     inkscape:groupmode="layer"
     id="layer1">
    <path
       style="opacity:0.601626;fill:#7de5e6;stroke-width:6.61458;stroke-linecap:square"
       id="path33"
       d="m -16.373948,-0.41322 c 5.961105,1.54101 -2.459609,-0.64622 6.8654136,1.83461 C -3.2412446,3.08875 0.36387867,4.04064 6.9387977,5.51048 15.94987,7.52493 19.742108,8.1752 28.817233,9.9078 c 12.387676,2.24457 24.785662,4.5118 37.290359,6.01154 6.756489,0.80734 13.577196,0.40663 20.347156,0.0178 11.476894,-0.93553 22.925302,-2.15523 34.409442,-3.00838 9.20184,-0.64047 18.43264,-0.73547 27.61963,-1.58598 5.54342,-0.57651 11.04722,-1.46784 16.46272,-2.78188 2.79517,-0.58713 5.50856,-1.51947 8.28935,-2.15455 2.77169,-0.2166 5.5544,-0.26345 8.33284,-0.19782 3.32888,0.10005 6.6626,0.058 9.9879,0.26681 1.99828,0.12546 5.0352,0.42189 6.98155,0.60147 13.42233,1.46485 32.12341,0.3319657 45.48419,2.2666057 21.89716,3.2824103 18.96049,-0.5342612 25.33418,0.8526333 l 5.05544,13.103568 -3.62195,6.100128 c 0,0 -0.56056,-4.743215 -22.99246,-2.049339 -3.70963,-0.45497 -13.13362,-6.571975 -16.84777,-6.988475 -3.03787,-0.34066 -9.70664,7.219499 -12.74778,6.909359 -6.60931,-0.67402 -13.20634,-1.46121 -19.81634,-2.12807 -1.74646,-0.13431 -5.07786,-0.40302 -6.90195,-0.49823 -3.30842,-0.17267 -6.62107,-0.0891 -9.93203,-0.14367 -2.64064,0.0138 -5.29062,0.0152 -7.91637,0.32563 -2.77052,0.58493 -5.49259,1.40009 -8.26831,1.96744 -5.51033,1.25099 -11.10005,2.10902 -16.7268,2.63786 -1.18383,0.0958 -2.366,0.21481 -3.55148,0.28729 -8.0241,0.49058 -16.07743,0.37894 -24.0954,1.00752 -5.30677,0.37729 -6.61744,0.44104 -11.9531,0.9407 -7.49555,0.70192 -14.971855,1.60487 -22.474896,2.23078 -4.275743,0.28154 -8.545594,0.52215 -12.830846,0.60129 -1.878926,0.0347 -3.920435,0.073 -5.809933,-0.10861 -0.695277,-0.0668 -1.381929,-0.20437 -2.072893,-0.30656 C 53.345643,32.03997 40.952923,29.36664 28.494344,27.0613 24.219125,26.24894 10.842102,23.71781 6.5578335,22.86095 -0.44852363,21.45968 -7.4058144,19.82605 -14.410662,18.42139 -15.175636,18.268 -15.947241,18.14975 -16.715531,18.01393 Z"
       sodipodi:nodetypes="ccsccccccccsccccscsscsccccscscsccccccc" />
    <path
       style="opacity:0.601626;fill:#7de5e6;stroke-width:6.61458;stroke-linecap:square"
       id="path34"
       d="m -35.618612,2.40299 c 0.507934,-0.006 1.017132,-0.0531 1.523799,-0.0168 6.109782,0.43757 12.188229,1.64609 18.235092,2.54367 C -4.1086626,6.67416 -5.1773974,6.46428 7.2181308,8.01363 20.454842,9.77311 33.800402,6.4595824 47.008143,8.4219624 L 46.820397,20.605012 v 0 c 0,0 -26.481938,1.022228 -39.7463514,-0.447212 -10.3143602,-1.16981 -13.155084,-1.45377 -23.1127106,-2.72106 -5.9132,-0.75256 -8.67536,-1.25409 -14.328563,-1.74921 -3.318714,-0.29067 -2.774733,-0.26943 -5.105395,-0.0921 z"
       sodipodi:nodetypes="ccccccscsccc" />
    <path
       style="opacity:0.601626;fill:#7de5e6;stroke-width:6.61458;stroke-linecap:square"
       id="path35"
       d="m 45.537194,10.699752 c 0.44976,-0.13947 0.889217,-0.31803 1.349283,-0.41842 2.410999,-0.5260896 7.615028,-1.2874196 9.535847,-1.5547796 2.835648,-0.39468 5.676802,-0.74885 8.516606,-1.11245 19.457296,-2.49122 0.849199,-0.0377 20.903398,-2.71031 12.547689,-1.86607 28.481432,4.459499 40.821002,1.478159 l 0.28524,12.9765096 v 0 c 0,0 -28.393437,-4.032719 -40.940968,-2.166669 -4.05384,0.5568 -16.706373,2.28308 -20.890451,2.90249 -2.830534,0.41904 -5.659654,0.85008 -8.480292,1.33123 -2.635843,0.44962 -6.524434,1.15553 -9.301871,1.9601 -0.410422,0.11889 -0.791136,0.32316 -1.186704,0.48473 z"
       sodipodi:nodetypes="cscccccscssscc" />
    <path
       style="opacity:0.601626;fill:#7de5e6;stroke-width:6.61458;stroke-linecap:square"
       id="path36"
       d="m 122.02437,7.47345 c 20.63445,3.33764 41.54288,4.3927 62.39582,5.34232 0,0 -0.0609,12.18898 -0.0609,12.18898 v 0 c -20.86962,-1.13744 -41.76004,-2.15636 -62.53756,-4.50874 z" />
    <path
       style="opacity:0.601626;fill:#7de5e6;stroke-width:6.61458;stroke-linecap:square"
       id="path37"
       d="m 188.46562,13.72197 c 7.91765,-1.07905 15.90066,-1.61344 23.85702,-2.31865 12.04839,-1.0679 10.07526,-2.0762698 22.48626,-3.3013598 12.25566,-1.1786 5.54202,0.6450401 17.74719,-0.9593999 l 0.51037,14.9488177 -0.0674,2.898094 c 0,0 -6.87606,-0.670975 -19.11478,0.690715 -7.90968,0.8379 -13.53274,-2.717447 -21.44171,-1.872787 -7.04714,0.75263 -14.14464,1.39124 -21.14115,2.55845 -0.84928,0.14168 -1.68781,0.34161 -2.53171,0.51241 z"
       sodipodi:nodetypes="cscccscsscc" />
    <path
       style="opacity:0.601626;fill:#7de5e6;stroke-width:6.61458;stroke-linecap:square"
       id="path38"
       d="m 108.35647,18.62966 c 8.87224,0.33987 4.13676,0.14931 14.20609,0.57963 0,0 -0.0414,12.53273 -0.0414,12.53273 v 0 c -10.04866,-0.23387 -5.32085,-0.19461 -14.18295,-0.16521 z" />
  </g>
</svg>
