<?xml version="1.0" encoding="UTF-8" standalone="no"?>
<!-- Created with Inkscape (http://www.inkscape.org/) -->

<svg
   width="500"
   height="100"
   viewBox="0 0 132.29166 26.458333"
   version="1.1"
   id="svg1"
   inkscape:version="1.3.2 (091e20e, 2023-11-25, custom)"
   sodipodi:docname="HighlightLine1.svg"
   xmlns:inkscape="http://www.inkscape.org/namespaces/inkscape"
   xmlns:sodipodi="http://sodipodi.sourceforge.net/DTD/sodipodi-0.dtd"
   xmlns="http://www.w3.org/2000/svg"
   xmlns:svg="http://www.w3.org/2000/svg">
  <sodipodi:namedview
     id="namedview1"
     pagecolor="#ffffff"
     bordercolor="#666666"
     borderopacity="1.0"
     inkscape:showpageshadow="2"
     inkscape:pageopacity="0.0"
     inkscape:pagecheckerboard="0"
     inkscape:deskcolor="#d1d1d1"
     inkscape:document-units="px"
     inkscape:zoom="0.69397448"
     inkscape:cx="275.94675"
     inkscape:cy="94.383875"
     inkscape:window-width="1920"
     inkscape:window-height="1017"
     inkscape:window-x="-8"
     inkscape:window-y="-8"
     inkscape:window-maximized="1"
     inkscape:current-layer="layer1" />
  <defs
     id="defs1" />
  <g
     inkscape:label="Layer 1"
     inkscape:groupmode="layer"
     id="layer1">
    <path
       style="opacity:0.558252;fill:#7de5e6;stroke-width:6.61458;stroke-linecap:square"
       id="path2-4-1"
       d="m 147.91286,2.9535672 c -0.29275,-0.06484 -0.58039,-0.1600659 -0.87825,-0.1945299 -1.86332,-0.2156001 -4.16295,-0.222251 -5.95644,-0.1985869 -11.65954,0.153841 -0.44916,0.2259072 -18.27243,1.4270482 -5.44627,0.367034 -10.90801,0.4492231 -16.36201,0.673834 -6.29329,0.123284 -12.585546,0.324079 -18.87988,0.3698533 -6.433214,0.04678 -12.866997,-0.01644 -19.299935,-0.0922 C 51.761686,4.7446355 35.267668,4.1991095 18.783986,3.4055064 14.756414,3.2116007 10.731029,2.9746705 6.7045501,2.7592516 -4.9854329,2.0850111 -16.687836,1.4132623 -28.32846,0.1122596 c -1.822746,-0.13429 -3.650302,-0.1629543 -5.476152,-0.22899725 0,0 -0.0054,25.65322265 -0.0054,25.65322265 v 0 c 1.821955,-0.0584 3.645085,-0.07881 5.465053,-0.18945 11.647101,-1.149859 23.3494191,-1.639484 35.0373371,-2.164853 9.0083459,-0.374723 17.4139799,-0.752105 26.4629519,-1.001806 24.411616,-0.673622 48.868434,-0.742342 73.25224,0.770032 20.70811,1.672807 10.77235,0.426657 28.64739,3.326699 1.90952,0.3098 3.82951,0.559366 5.73011,0.919871 2.13094,0.404196 4.26472,0.874088 6.12785,2.022388 z" />
    <path
       style="opacity:0.84466019;fill:#7de5e6;stroke-width:6.61458;stroke-linecap:square"
       id="path4-8-8"
       d="m -33.563579,30.390719 c 2.599253,-0.445926 5.18601,-0.97206 7.797754,-1.33778 15.082901,-2.112039 29.3295499,-3.636832 44.691511,-4.379807 19.822139,-0.958689 41.095985,-0.728402 60.928214,0.01235 8.839826,0.330176 17.664726,0.981598 26.49709,1.472398 20.00302,1.634677 19.90594,1.483264 38.2134,3.455275 4.09392,0.440981 8.18048,0.94783 12.27071,1.421744 0,0 0.0726,-16.255382 0.0726,-16.255382 v 0 c -16.83914,0.44446 -33.6809,0.770972 -50.52684,0.808402 C 83.123524,15.564419 73.587451,15.654479 49.7349,15.190671 39.460458,14.990885 29.183324,14.819355 18.91651,14.375909 -0.77086155,13.525569 -7.8894459,12.761818 -25.827199,11.02364 c -2.632358,-0.255076 -5.262173,-0.535741 -7.893259,-0.803612 z" />
  </g>
</svg>
