<?xml version="1.0" encoding="UTF-8" standalone="no"?>
<!-- Created with Inkscape (http://www.inkscape.org/) -->

<svg
   width="1000"
   height="100"
   viewBox="0 0 264.58333 26.458332"
   version="1.1"
   id="svg1"
   inkscape:version="1.3.2 (091e20e, 2023-11-25, custom)"
   sodipodi:docname="HighlightLine2.svg"
   xmlns:inkscape="http://www.inkscape.org/namespaces/inkscape"
   xmlns:sodipodi="http://sodipodi.sourceforge.net/DTD/sodipodi-0.dtd"
   xmlns="http://www.w3.org/2000/svg"
   xmlns:svg="http://www.w3.org/2000/svg">
  <sodipodi:namedview
     id="namedview1"
     pagecolor="#ffffff"
     bordercolor="#666666"
     borderopacity="1.0"
     inkscape:showpageshadow="2"
     inkscape:pageopacity="0.0"
     inkscape:pagecheckerboard="0"
     inkscape:deskcolor="#d1d1d1"
     inkscape:document-units="px"
     inkscape:zoom="0.34698723"
     inkscape:cx="272.34431"
     inkscape:cy="-338.62917"
     inkscape:window-width="1920"
     inkscape:window-height="1017"
     inkscape:window-x="-8"
     inkscape:window-y="-8"
     inkscape:window-maximized="1"
     inkscape:current-layer="layer1" />
  <defs
     id="defs1" />
  <g
     inkscape:label="Layer 1"
     inkscape:groupmode="layer"
     id="layer1">
    <path
       style="opacity:0.601626;fill:#7de5e6;stroke-width:6.61458;stroke-linecap:square"
       id="path33-2"
       d="m -2.7850923,29.652809 c 9.0110719,-2.01445 24.0504213,-4.586201 33.1255473,-6.318801 12.387676,-2.24457 11.060373,0.269116 23.56507,-1.230625 6.756489,-0.80734 13.577196,-0.40663 20.347156,-0.0178 11.476894,0.935531 22.162792,-3.182381 33.646929,-2.329231 9.20184,0.64047 18.43264,0.73547 27.61963,1.58598 5.54342,0.57651 11.04722,1.46784 16.46272,2.78188 2.79517,0.58713 5.50856,1.51947 8.28935,2.15455 2.77169,0.2166 5.5544,0.26345 8.33284,0.19782 3.32888,-0.10005 6.6626,-0.058 9.9879,-0.26681 1.99828,-0.12546 5.0352,-0.42189 6.98155,-0.60147 13.42233,-1.46485 26.7858,-3.38203 40.14658,-5.31667 21.89716,-3.282411 29.06382,18.453385 50.97377,15.255513 l -5,-28.2321572 -13.6143,-0.1347951 c 0,0 -10.63214,-2.2049062 -32.58747,0.7247738 -3.70963,0.45497 -7.41475,0.9484201 -11.1289,1.36492 -3.03787,0.3406601 -6.08469,0.5962901 -9.12583,0.9064305 -6.60931,0.67402 -13.20634,1.46121 -19.81634,2.12807 -1.74646,0.13431 -5.07786,0.40302 -6.90195,0.49823 -3.30842,0.17267 -6.62107,0.0891 -9.93203,0.14367 -2.64064,-0.0138 -5.29062,-0.0152 -7.91637,-0.32563 -2.77052,-0.58493 -5.49259,-1.40009 -8.26831,-1.96744 -5.51033,-1.2509904 -11.10005,-2.1090204 -16.7268,-2.6378604 -1.18383,-0.0958 -2.366,-0.2148101 -3.55148,-0.2872901 C 124.10007,7.2374868 116.04674,7.3491268 108.02877,6.7205467 102.722,6.3432566 100.17225,8.1857969 94.83658,7.6861369 87.34103,6.9842169 81.866328,9.5125887 74.363287,8.8866783 70.087544,8.6051384 65.817693,8.3645283 61.532441,8.2853884 c -1.878926,-0.0347 -3.920435,-0.073 -5.809933,0.1086099 -0.695277,0.0668 -1.381929,0.2043703 -2.072893,0.3065601 C 41.143576,10.745249 42.476145,8.6376624 30.017566,10.943003 28.273139,11.274472 22.062459,6.0272948 16.306369,6.1405761 7.9555025,6.3049233 -0.62990681,3.7073964 -3.1660563,4.2146301 Z"
       sodipodi:nodetypes="cccccccccsccccscsscsccccscscscccscc" />
    <path
       style="opacity:0.601626;fill:#7de5e6;stroke-width:6.61458;stroke-linecap:square"
       id="path34-0"
       d="M -0.93611646,28.609277 C 12.300595,26.849797 20.701024,20.968522 33.908765,19.006142 L 33.721019,6.8230865 v 0 C 20.551945,8.9574671 12.184212,14.995663 -1.0802015,16.465104 Z"
       sodipodi:nodetypes="cccscc" />
    <path
       style="opacity:0.601626;fill:#7de5e6;stroke-width:6.61458;stroke-linecap:square"
       id="path35-5"
       d="m 32.056558,19.397157 c 0.44976,0.13947 0.889217,0.31803 1.349283,0.41842 2.410999,0.526091 7.996286,-1.381385 9.917105,-1.114025 2.835648,0.39468 5.676802,0.74885 8.516606,1.11245 19.457296,2.49122 0.849199,0.0377 20.903398,2.71031 12.547689,1.86607 25.921737,-0.335524 38.2613,2.645816 l 0.28524,-12.976511 v 0 c 0,0 -25.833735,-0.09126 -38.381266,-1.95731 C 68.854384,9.679507 56.201851,7.9532271 52.017773,7.3338171 49.187239,6.914777 46.358119,6.483737 43.537481,6.0025868 40.901638,5.552967 36.631789,7.5158631 33.854352,6.7112928 33.44393,6.5924028 31.715265,7.3316982 31.319697,7.170128 Z"
       sodipodi:nodetypes="cscccccscssscc" />
    <path
       style="opacity:0.601626;fill:#7de5e6;stroke-width:6.61458;stroke-linecap:square"
       id="path36-7"
       d="m 109.05979,25.211662 c 20.63445,-3.33764 47.63459,-6.414626 68.48753,-7.364246 l -0.0609,-12.1889854 v 0 c 0,0 -47.85175,4.1782864 -68.62927,6.5306674 z"
       sodipodi:nodetypes="cccscc" />
    <path
       style="opacity:0.601626;fill:#7de5e6;stroke-width:6.61458;stroke-linecap:square"
       id="path37-6"
       d="m 175.50104,18.963142 c 7.91765,1.07905 15.90066,1.61344 23.85702,2.31865 12.04839,1.0679 11.31435,1.02781 23.72535,2.2529 12.25566,1.1786 15.38993,1.101004 27.5951,2.705444 l 1.50018,-21.7103968 h -9.97483 c 0,0 -6.75789,8.2213398 -18.99661,6.8596488 -7.90968,-0.837901 -15.82029,-1.6670207 -23.72926,-2.5116808 -7.04714,-0.7526301 -14.14464,-1.3912401 -21.14115,-2.55845 -0.84928,-0.14168 -1.68781,-0.3416102 -2.53171,-0.5124101 z"
       sodipodi:nodetypes="cscccscsscc" />
  </g>
</svg>
