<?xml version="1.0" encoding="UTF-8" standalone="no"?>
<!-- Created with Inkscape (http://www.inkscape.org/) -->

<svg
   width="500"
   height="100"
   viewBox="0 0 132.29166 26.458333"
   version="1.1"
   id="svg1"
   inkscape:version="1.3.2 (091e20e, 2023-11-25, custom)"
   sodipodi:docname="HighlightLine4.svg"
   xmlns:inkscape="http://www.inkscape.org/namespaces/inkscape"
   xmlns:sodipodi="http://sodipodi.sourceforge.net/DTD/sodipodi-0.dtd"
   xmlns="http://www.w3.org/2000/svg"
   xmlns:svg="http://www.w3.org/2000/svg">
  <sodipodi:namedview
     id="namedview1"
     pagecolor="#ffffff"
     bordercolor="#666666"
     borderopacity="1.0"
     inkscape:showpageshadow="2"
     inkscape:pageopacity="0.0"
     inkscape:pagecheckerboard="0"
     inkscape:deskcolor="#d1d1d1"
     inkscape:document-units="px"
     inkscape:zoom="0.98142812"
     inkscape:cx="276.12822"
     inkscape:cy="34.133931"
     inkscape:window-width="1920"
     inkscape:window-height="1017"
     inkscape:window-x="-8"
     inkscape:window-y="-8"
     inkscape:window-maximized="1"
     inkscape:current-layer="layer1" />
  <defs
     id="defs1" />
  <g
     inkscape:label="Layer 1"
     inkscape:groupmode="layer"
     id="layer1">
    <path
       style="opacity:0.44250364;fill:#7bceff;fill-opacity:1;stroke-width:6.61458;stroke-linecap:square"
       id="path2-4-1"
       d="m 147.91286,1.8952339 c -0.29275,-0.06484 -0.58039,-0.1600659 -0.87825,-0.1945299 -1.86332,-0.2156001 -4.16295,-0.222251 -5.95644,-0.1985869 -11.65954,0.1538409 -0.44916,0.2259072 -18.27243,1.4270484 -5.44627,0.3670339 -10.90801,0.449223 -16.36201,0.6738339 -6.29329,0.123284 -12.585546,0.3240792 -18.87988,0.3698533 -6.433214,0.04678 -12.866997,-0.01644 -19.299935,-0.0922 C 51.761686,3.6863024 35.267668,3.1407763 18.783986,2.3471731 14.756414,2.1532675 10.731029,1.9163372 6.7045501,1.7009183 -4.9854329,1.0266779 -16.687836,0.35492905 -28.32846,-0.94607375 -30.151206,-1.0803637 -31.978762,-1.109028 -33.804612,-1.1750708 c 0,0 -0.0054,25.6532218 -0.0054,25.6532218 v 0 c 1.821955,-0.0584 3.645085,-0.07881 5.465053,-0.18945 11.647101,-1.149859 23.3494191,-1.639484 35.0373371,-2.164853 9.0083459,-0.374723 17.4139799,-0.752105 26.4629519,-1.001806 24.411616,-0.673622 48.868434,-0.742342 73.25224,0.770032 20.70811,1.672807 10.77235,0.426657 28.64739,3.326699 1.90952,0.3098 3.82951,0.559366 5.73011,0.919871 2.13094,0.404196 4.26472,0.874088 6.12785,2.022388 z" />
    <path
       style="opacity:0.44250364;fill:#7bceff;fill-opacity:1;stroke-width:6.61458;stroke-linecap:square"
       id="path4-8-8"
       d="m -33.563579,26.68655 c 2.599253,-0.445926 5.18601,-0.97206 7.797754,-1.33778 15.082901,-2.112039 29.3295499,-3.636832 44.691511,-4.379807 19.822139,-0.958689 41.095985,-0.728402 60.928214,0.01235 8.839826,0.330176 17.664726,0.981598 26.49709,1.472398 20.00302,1.634677 19.90594,1.483264 38.2134,3.455275 4.09392,0.440981 8.18048,0.94783 12.27071,1.421744 0,0 0.0726,-16.255381 0.0726,-16.255381 v 0 C 140.06856,11.519808 123.2268,11.84632 106.38086,11.88375 83.123524,11.86025 73.587451,11.95031 49.7349,11.486502 39.460458,11.286716 29.183324,11.115186 18.91651,10.671741 -0.77086155,9.8214005 -7.8894459,9.05765 -25.827199,7.3194733 -28.459557,7.0643973 -31.089372,6.7837329 -33.720458,6.5158614 Z" />
  </g>
</svg>
